# xmcd
#
# Track frame offsets: 
#        150
#        18295
#        39966
#        61201
#        81893
#        102871
#        123031
#        141721
#        160358
#        181320
#        206586
#        229286
#        251045
#        274890
#        301899
#
# Disc length: 4267 seconds
#
# Revision: 1
# Processed by: cddbd v1.5.2PL0 Copyright (c) Steve Scherf et al.
# Submitted via: ExactAudioCopy v0.99pb5
#
DISCID=cd10a90f
DTITLE=B.U.G. Mafia - Viata noastra vol.1
DYEAR=2009
DGENRE=Hip-Hop
TTITLE0=Viata noastra (feat. Adriana Vlad)
TTITLE1=N-ai fost acolo
TTITLE2=Capu' sus (feat. Adriana Vlad)
TTITLE3=Gherila p.t.m. (feat. Villy)
TTITLE4=Poezie de strada (remix)
TTITLE5=Fata-n fata
TTITLE6=Intre noapte si zi (feat. Adriana Vlad)
TTITLE7=Romaneste
TTITLE8=Un 2 si trei de 0 (feat. Villy)
TTITLE9=Pana cand moartea ne va desparti (feat. Adriana Vlad)
TTITLE10=Anturaju'
TTITLE11=De cartier (fea.t Adriana Vlad)
TTITLE12=Jucator adevarat (feat. Villy)
TTITLE13=Limbaj de cartier (feat. Cheloo)
TTITLE14=Pantelimonu' petrece (feat. Adriana Vlad)
EXTD=
EXTT0=
EXTT1=
EXTT2=
EXTT3=
EXTT4=
EXTT5=
EXTT6=
EXTT7=
EXTT8=
EXTT9=
EXTT10=
EXTT11=
EXTT12=
EXTT13=
EXTT14=
PLAYORDER=
